<?xml version="1.0" encoding="UTF-8" standalone="no"?>
<svg xmlns:sketch="http://www.bohemiancoding.com/sketch/ns" width="297px"
     height="300px" viewBox="0 0 297 300"
     version="1.1"
     xmlns="http://www.w3.org/2000/svg">
    <!-- Generator: Sketch 3.4.2 (15855) - http://www.bohemiancoding.com/sketch -->
    <title>registered-icon</title>
    <desc>Created with Sketch.</desc>
    <defs>
        <linearGradient x1="18.2879192%" y1="0%" x2="91.4586509%" y2="100%"
                        id="linearGradient-1">
            <stop stop-color="#2F1645" offset="0%"></stop>
            <stop stop-color="#513764" offset="25.361152%"></stop>
            <stop stop-color="#5B3461" offset="62.0315599%"></stop>
            <stop stop-color="#864059" offset="100%"></stop>
        </linearGradient>
        <linearGradient x1="79.7968185%" y1="8.359375%" x2="12.8535544%"
                        y2="80.1640625%" id="linearGradient-2">
            <stop stop-color="#B4ED50" offset="0%"></stop>
            <stop stop-color="#79BE38" offset="51.8496355%"></stop>
            <stop stop-color="#429321" offset="100%"></stop>
        </linearGradient>
    </defs>
    <g id="Page-1" stroke="none" stroke-width="1" fill="none"
       fill-rule="evenodd" sketch:type="MSPage">
        <g id="registered-icon" sketch:type="MSLayerGroup">
            <g id="Page-1" sketch:type="MSShapeGroup">
                <g id="opt-2">
                    <g id="icon" transform="translate(0.296472, 0.000000)">
                        <ellipse id="Oval-1" fill="url(#linearGradient-1)"
                                 transform="translate(148.192771, 150.000000) scale(-1, 1) translate(-148.192771, -150.000000) "
                                 cx="148.192771" cy="150" rx="148.192771"
                                 ry="150"></ellipse>
                        <path d="M116.147712,165.393254 L184.098537,165.393254 L193.329472,128.715959 L106.614384,128.715959 L116.147712,165.393254 L116.147712,165.393254 Z M117.285664,194.591716 C115.431519,194.591716 113.927513,196.118091 113.927513,197.99082 C113.927513,199.867576 115.431519,201.389923 117.285664,201.389923 C119.135829,201.389923 120.643814,199.867576 120.643814,197.99082 C120.643814,196.118091 119.135829,194.591716 117.285664,194.591716 L117.285664,194.591716 L117.285664,194.591716 Z M178.388885,194.591716 C176.538719,194.591716 175.030735,196.118091 175.030735,197.99082 C175.030735,199.867576 176.538719,201.389923 178.388885,201.389923 C180.239051,201.389923 181.747036,199.867576 181.747036,197.99082 C181.747036,196.118091 180.239051,194.591716 178.388885,194.591716 L178.388885,194.591716 L178.388885,194.591716 Z M178.388885,211.458359 C171.051883,211.458359 165.083606,205.417297 165.083606,197.99082 C165.083606,196.818854 165.230824,195.679107 165.509343,194.591716 L130.161227,194.591716 C130.439746,195.679107 130.590943,196.818854 130.590943,197.99082 C130.590943,205.417297 124.622666,211.458359 117.285664,211.458359 C109.948662,211.458359 103.980384,205.417297 103.980384,197.99082 C103.980384,192.77537 106.924734,188.244574 111.217915,186.005355 L107.688674,172.421022 C107.49371,171.969956 107.366387,171.482644 107.310683,170.971167 L91.1684827,108.848923 L77.5807048,108.848923 C74.8313183,108.848923 72.6071404,106.593593 72.6071404,103.814705 C72.6071404,101.035817 74.8313183,98.7804878 77.5807048,98.7804878 L95.0040954,98.7804878 C97.2601041,98.7804878 99.2375931,100.322972 99.8145267,102.534 L104.000279,118.647524 L199.731445,118.647524 C201.267281,118.647524 202.715583,119.364397 203.658571,120.588718 C204.59758,121.817067 204.927824,123.415935 204.549833,124.922173 L192.78437,171.67193 C192.223352,173.899068 190.237905,175.461689 187.965981,175.461689 L118.765796,175.461689 L121.121276,184.523281 L178.388885,184.523281 L178.396843,184.523281 C185.729866,184.527308 191.694164,190.568369 191.694164,197.99082 C191.694164,205.417297 185.725887,211.458359 178.388885,211.458359 L178.388885,211.458359 L178.388885,211.458359 Z"
                              id="icon-mask" fill="#FBE9FF"></path>
                    </g>
                    <g id="icon" transform="translate(197.098824, 200.000000)">
                        <ellipse id="Oval-1" fill="url(#linearGradient-2)"
                                 transform="translate(49.397590, 50.000000) scale(-1, 1) translate(-49.397590, -50.000000) "
                                 cx="49.3975904" cy="50" rx="49.3975904"
                                 ry="50"></ellipse>
                        <path d="M66.7327798,33.2468847 L39.0754985,60.9047619 L45.0958608,60.9047619 L31.2672202,47.0758233 C29.604743,45.4133103 26.909335,45.4133103 25.2468579,47.0758233 C23.5843807,48.7383363 23.5843807,51.4338024 25.2468579,53.0963153 L39.0754985,66.9252539 C40.7379757,68.5877669 43.4333837,68.5877669 45.0958608,66.9252539 L72.7531421,39.2673767 C74.4156193,37.6048638 74.4156193,34.9093977 72.7531421,33.2468847 C71.090665,31.5843718 68.395257,31.5843718 66.7327798,33.2468847 L66.7327798,33.2468847 Z"
                              id="Shape" fill="#FFFFFF"></path>
                    </g>
                </g>
            </g>
        </g>
    </g>
</svg>
