<?xml version="1.0" encoding="UTF-8" standalone="no"?>
<svg width="20px" height="17px" viewBox="0 0 20 17" version="1.1" xmlns="http://www.w3.org/2000/svg" xmlns:xlink="http://www.w3.org/1999/xlink" xmlns:sketch="http://www.bohemiancoding.com/sketch/ns">
    <!-- Generator: Sketch 3.4 (15575) - http://www.bohemiancoding.com/sketch -->
    <title>icon-mask</title>
    <desc>Created with Sketch.</desc>
    <defs></defs>
    <g id="Page-1" stroke="none" stroke-width="1" fill="none" fill-rule="evenodd" sketch:type="MSPage">
        <path d="M6.59212896,9.9637954 L16.8800188,9.9637954 L18.2776007,4.47768387 L5.14876416,4.47768387 L6.59212896,9.9637954 Z M6.76441708,14.331239 C6.48369588,14.331239 6.25598641,14.5595508 6.25598641,14.8396696 C6.25598641,15.1203908 6.48369588,15.3481003 6.76441708,15.3481003 C7.04453588,15.3481003 7.27284775,15.1203908 7.27284775,14.8396696 C7.27284775,14.5595508 7.04453588,14.331239 6.76441708,14.331239 L6.76441708,14.331239 Z M16.0155662,14.331239 C15.7354474,14.331239 15.5071355,14.5595508 15.5071355,14.8396696 C15.5071355,15.1203908 15.7354474,15.3481003 16.0155662,15.3481003 C16.295685,15.3481003 16.5239968,15.1203908 16.5239968,14.8396696 C16.5239968,14.5595508 16.295685,14.331239 16.0155662,14.331239 L16.0155662,14.331239 Z M16.0155662,16.8541153 C14.9047295,16.8541153 14.0011205,15.9505063 14.0011205,14.8396696 C14.0011205,14.6643695 14.0234095,14.4938886 14.0655779,14.331239 L8.71380293,14.331239 C8.75597135,14.4938886 8.77886278,14.6643695 8.77886278,14.8396696 C8.77886278,15.9505063 7.87525376,16.8541153 6.76441708,16.8541153 C5.6535804,16.8541153 4.74997139,15.9505063 4.74997139,14.8396696 C4.74997139,14.0595539 5.19575183,13.3818471 5.84574792,13.0469094 L5.31141379,11.0149939 C5.28189589,10.9475244 5.2626189,10.8746333 5.25418522,10.7981277 L2.81022403,1.50601502 L0.753007512,1.50601502 C0.336744959,1.50601502 0,1.16866766 0,0.753007512 C0,0.337347365 0.336744959,0 0.753007512,0 L3.39094343,0 C3.73250764,0 4.03190342,0.230721502 4.11925229,0.561442401 L4.75298342,2.97166885 L19.246872,2.97166885 C19.4794007,2.97166885 19.6986765,3.07889712 19.8414467,3.26202854 C19.9836146,3.44576237 20.0336143,3.68491756 19.9763857,3.91021741 L18.1950711,10.9029464 C18.1101319,11.2360769 17.8095313,11.4698104 17.4655574,11.4698104 L6.98851212,11.4698104 L7.34513648,12.8252239 L16.0155662,12.8252239 L16.016771,12.8252239 C17.1270053,12.8258264 18.0300119,13.7294354 18.0300119,14.8396696 C18.0300119,15.9505063 17.1264029,16.8541153 16.0155662,16.8541153 L16.0155662,16.8541153 Z" id="icon-mask" fill="#020302" sketch:type="MSShapeGroup"></path>
    </g>
</svg>