<?xml version="1.0" encoding="UTF-8" standalone="no"?>
<svg width="1000px" height="1000px" viewBox="0 0 1000 1000" version="1.1" xmlns="http://www.w3.org/2000/svg" xmlns:xlink="http://www.w3.org/1999/xlink" xmlns:sketch="http://www.bohemiancoding.com/sketch/ns">
    <!-- Generator: Sketch 3.3.2 (12043) - http://www.bohemiancoding.com/sketch -->
    <title>-icon</title>
    <desc>Created with Sketch.</desc>
    <defs></defs>
    <g id="UI" stroke="none" stroke-width="1" fill="none" fill-rule="evenodd" sketch:type="MSPage">
        <g id="-icon" sketch:type="MSArtboardGroup" fill="#000000">
            <path d="M384.615385,845.913626 C384.615385,866.73837 377.003205,884.759783 361.778846,899.977865 C346.554487,915.195948 328.525641,922.804989 307.692308,922.804989 C286.858974,922.804989 268.830128,915.195948 253.605769,899.977865 C238.38141,884.759783 230.769231,866.73837 230.769231,845.913626 C230.769231,825.088882 238.38141,807.067469 253.605769,791.849387 C268.830128,776.631305 286.858974,769.022263 307.692308,769.022263 C328.525641,769.022263 346.554487,776.631305 361.778846,791.849387 C377.003205,807.067469 384.615385,825.088882 384.615385,845.913626 L384.615385,845.913626 Z M923.076923,845.913626 C923.076923,866.73837 915.464744,884.759783 900.240385,899.977865 C885.016026,915.195948 866.987179,922.804989 846.153846,922.804989 C825.320513,922.804989 807.291667,915.195948 792.067308,899.977865 C776.842949,884.759783 769.230769,866.73837 769.230769,845.913626 C769.230769,825.088882 776.842949,807.067469 792.067308,791.849387 C807.291667,776.631305 825.320513,769.022263 846.153846,769.022263 C866.987179,769.022263 885.016026,776.631305 900.240385,791.849387 C915.464744,807.067469 923.076923,825.088882 923.076923,845.913626 L923.076923,845.913626 Z M1000,192.337044 L1000,499.902494 C1000,509.513915 996.694712,518.024026 990.084135,525.43283 C983.473558,532.841633 975.360577,537.146748 965.745192,538.348176 L338.341346,611.635256 C343.549679,635.663806 346.153846,649.680461 346.153846,653.68522 C346.153846,660.092833 341.346154,672.90806 331.730769,692.130901 L884.615385,692.130901 C895.032051,692.130901 904.046474,695.935421 911.658654,703.544462 C919.270833,711.153504 923.076923,720.16421 923.076923,730.576582 C923.076923,740.988954 919.270833,749.999661 911.658654,757.608702 C904.046474,765.217743 895.032051,769.022263 884.615385,769.022263 L269.230769,769.022263 C258.814103,769.022263 249.799679,765.217743 242.1875,757.608702 C234.575321,749.999661 230.769231,740.988954 230.769231,730.576582 C230.769231,726.171348 232.371795,719.863853 235.576923,711.654098 C238.782051,703.444344 241.987179,696.235778 245.192308,690.028403 C248.397436,683.821027 252.704327,675.81151 258.112981,665.999852 C263.521635,656.188194 266.626603,650.281175 267.427885,648.278796 L161.057692,153.891363 L38.4615385,153.891363 C28.0448718,153.891363 19.0304487,150.086842 11.4182692,142.477801 C3.80608974,134.86876 0,125.858053 0,115.445681 C0,105.033309 3.80608974,96.0226027 11.4182692,88.4135616 C19.0304487,80.8045205 28.0448718,77 38.4615385,77 L192.307692,77 C198.717949,77 204.427083,78.3015465 209.435096,80.9046395 C214.443109,83.5077325 218.349359,86.6114203 221.153846,90.2157029 C223.958333,93.8199856 226.5625,98.7258147 228.966346,104.93319 C231.370192,111.140566 232.972756,116.346752 233.774038,120.551748 C234.575321,124.756745 235.677083,130.663763 237.079327,138.272805 C238.481571,145.881846 239.383013,151.088032 239.783654,153.891363 L961.538462,153.891363 C971.955128,153.891363 980.969551,157.695883 988.581731,165.304924 C996.19391,172.913965 1000,181.924672 1000,192.337044 L1000,192.337044 Z" id="Shape" sketch:type="MSShapeGroup"></path>
        </g>
    </g>
</svg>