<!-- Shopping Cart by Alfa Design from the Noun Project -->
<svg class="fill-current" width="20" height="20" viewBox="0 0 100 100" xmlns:dc="http://purl.org/dc/elements/1.1/" xmlns:cc="http://creativecommons.org/ns#"
     xmlns:rdf="http://www.w3.org/1999/02/22-rdf-syntax-ns#" xmlns:svg="http://www.w3.org/2000/svg"
     xmlns="http://www.w3.org/2000/svg" xmlns:sodipodi="http://sodipodi.sourceforge.net/DTD/sodipodi-0.dtd"
     xmlns:inkscape="http://www.inkscape.org/namespaces/inkscape" version="1.1" x="0px" y="0px">
    <g transform="translate(0,-952.36218)">
        <path style="text-indent:0;text-transform:none;direction:ltr;block-progression:tb;baseline-shift:baseline;color:#000000;enable-background:accumulate;"
              d="m 7.0159572,961.36217 c -1.6569,0 -3,1.34315 -3,3 0,1.65685 1.3431,3 3,3 l 11.5624998,0 10.3125,48.65623 c 0.408,1.8316 1.6084,3.356 3.125,3.3438 l 50,0 c 1.5849,0.022 3.0427,-1.4149 3.0427,-3 0,-1.5851 -1.4578,-3.0224 -3.0427,-3 l -47.5625,0 -1.2813,-6 52.8438,0 c 1.3432,-0.01 2.6123,-1.0331 2.9062,-2.3438 l 7,-29.99998 c 0.3901,-1.74107 -1.122,-3.64346 -2.9062,-3.65625 l -67.4375,0 -1.625,-7.625 c -0.2839,-1.3321 -1.5755,-2.3764 -2.9375,-2.375 z m 19.8124998,16 62.4063,0 -5.5938,24.00003 -51.7188,0 z m 15.1875,46.00003 c -5.4873,0 -10,4.5126 -10,10 0,5.4873 4.5127,10 10,10 5.4873,0 10,-4.5127 10,-10 0,-5.4873 -4.5127,-10 -10,-10 z m 30,0 c -5.4873,0 -10,4.5126 -10,10 0,5.4873 4.5127,10 10,10 5.4873,0 10,-4.5127 10,-10 0,-5.4873 -4.5127,-10 -10,-10 z m -30,6 c 2.2447,0 4,1.7553 4,4 0,2.2447 -1.7553,4 -4,4 -2.2445,0 -4,-1.7554 -4,-4 0,-2.2446 1.7555,-4 4,-4 z m 30,0 c 2.2447,0 4,1.7553 4,4 0,2.2447 -1.7553,4 -4,4 -2.2445,0 -4,-1.7554 -4,-4 0,-2.2446 1.7555,-4 4,-4 z"
              fill="#000000" fill-opacity="1" stroke="none" marker="none" visibility="visible" display="inline"
              overflow="visible"/>
    </g>
    <text x="0" y="115" fill="#000000" font-size="5px" font-weight="bold"
          font-family="'Helvetica Neue', Helvetica, Arial-Unicode, Arial, Sans-serif">Created by Alfa Design
    </text>
    <text x="0" y="120" fill="#000000" font-size="5px" font-weight="bold"
          font-family="'Helvetica Neue', Helvetica, Arial-Unicode, Arial, Sans-serif">from the Noun Project
    </text>
</svg>