<?xml version="1.0" encoding="utf-8"?>
<!-- Generator: Adobe Illustrator 21.1.0, SVG Export Plug-In . SVG Version: 6.00 Build 0)  -->
<svg version="1.1" id="Layer_1" xmlns="http://www.w3.org/2000/svg"  x="0px" y="0px"
	 viewBox="0 0 46.3 30.9" style="enable-background:new 0 0 46.3 30.9;" xml:space="preserve">
<path id="_xF283_" d="M0,27.6V15.4h46.3v12.2c0,0.9-0.3,1.6-0.9,2.3c-0.6,0.6-1.4,0.9-2.3,0.9H3.2c-0.9,0-1.6-0.3-2.3-0.9
	C0.3,29.3,0,28.5,0,27.6z M12.9,23.1v2.6h7.7v-2.6H12.9z M5.1,23.1v2.6h5.1v-2.6H5.1z M43.1,0c0.9,0,1.6,0.3,2.3,0.9
	c0.6,0.6,0.9,1.4,0.9,2.3v4.5H0V3.2c0-0.9,0.3-1.6,0.9-2.3C1.6,0.3,2.3,0,3.2,0H43.1z"/>
<g>
</g>
<g>
</g>
<g>
</g>
<g>
</g>
<g>
</g>
<g>
</g>
</svg>
