<?xml version="1.0" encoding="UTF-8" standalone="no"?>
<svg width="83px" height="82px" viewBox="0 0 83 82" version="1.1" xmlns="http://www.w3.org/2000/svg" xmlns:xlink="http://www.w3.org/1999/xlink" xmlns:sketch="http://www.bohemiancoding.com/sketch/ns">
    <!-- Generator: Sketch 3.4 (15575) - http://www.bohemiancoding.com/sketch -->
    <title>icon</title>
    <desc>Created with Sketch.</desc>
    <defs>
        <linearGradient x1="18.2879192%" y1="0%" x2="91.4586509%" y2="100%" id="linearGradient-1">
            <stop stop-color="#2F1645" offset="0%"></stop>
            <stop stop-color="#513764" offset="25.361152%"></stop>
            <stop stop-color="#5B3461" offset="62.0315599%"></stop>
            <stop stop-color="#864059" offset="100%"></stop>
        </linearGradient>
    </defs>
    <g id="Page-1" stroke="none" stroke-width="1" fill="none" fill-rule="evenodd" sketch:type="MSPage">
        <g id="opt-2" sketch:type="MSLayerGroup" transform="translate(-484.000000, -482.000000)">
            <g id="icon" transform="translate(484.912024, 482.000000)" sketch:type="MSShapeGroup">
                <circle id="Oval-1" fill="url(#linearGradient-1)" transform="translate(41.000000, 41.000000) scale(-1, 1) translate(-41.000000, -41.000000) " cx="41" cy="41" r="41"></circle>
                <path d="M32.1342003,45.2074895 L50.9339286,45.2074895 L53.4878207,35.1823621 L29.4966462,35.1823621 L32.1342003,45.2074895 Z M32.4490336,53.1884024 C31.9360535,53.1884024 31.5199452,53.6056115 31.5199452,54.1174907 C31.5199452,54.6304708 31.9360535,55.046579 32.4490336,55.046579 C32.9609128,55.046579 33.3781219,54.6304708 33.3781219,54.1174907 C33.3781219,53.6056115 32.9609128,53.1884024 32.4490336,53.1884024 L32.4490336,53.1884024 Z M49.3542582,53.1884024 C48.842379,53.1884024 48.4251699,53.6056115 48.4251699,54.1174907 C48.4251699,54.6304708 48.842379,55.046579 49.3542582,55.046579 C49.8661375,55.046579 50.2833466,54.6304708 50.2833466,54.1174907 C50.2833466,53.6056115 49.8661375,53.1884024 49.3542582,53.1884024 L49.3542582,53.1884024 Z M49.3542582,57.798618 C47.3243543,57.798618 45.673131,56.1473946 45.673131,54.1174907 C45.673131,53.7971534 45.7138612,53.4856226 45.7909182,53.1884024 L36.0112727,53.1884024 C36.0883298,53.4856226 36.1301608,53.7971534 36.1301608,54.1174907 C36.1301608,56.1473946 34.4789375,57.798618 32.4490336,57.798618 C30.4191297,57.798618 28.7679063,56.1473946 28.7679063,54.1174907 C28.7679063,52.6919345 29.5825098,51.453517 30.7702898,50.8414636 L29.7938664,47.1284127 C29.7399264,47.0051213 29.7047003,46.8719226 29.6892889,46.7321191 L25.2232802,29.7520389 L21.463995,29.7520389 C20.7033314,29.7520389 20.0879755,29.1355822 20.0879755,28.3760195 C20.0879755,27.6164567 20.7033314,27 21.463995,27 L26.2844664,27 C26.9086288,27 27.4557341,27.4216124 27.6153524,28.0259601 L28.7734104,32.4303232 L55.259033,32.4303232 C55.6839478,32.4303232 56.0846446,32.6262684 56.3455379,32.9609163 C56.6053304,33.2966651 56.6966981,33.7336888 56.5921206,34.1453939 L53.337009,46.923661 C53.181794,47.532412 52.632487,47.9595284 52.0039213,47.9595284 L32.858537,47.9595284 L33.5102198,50.4363634 L49.3542582,50.4363634 L49.3564599,50.4363634 C51.385263,50.4374643 53.0353855,52.0886876 53.0353855,54.1174907 C53.0353855,56.1473946 51.3841622,57.798618 49.3542582,57.798618 L49.3542582,57.798618 Z" id="icon-mask" fill="#FBE9FF"></path>
            </g>
        </g>
    </g>
</svg>