<?xml version="1.0" encoding="UTF-8"?>
<svg id="Layer_1" data-name="Layer 1" xmlns="http://www.w3.org/2000/svg" xmlns:xlink="http://www.w3.org/1999/xlink" version="1.1" viewBox="0 0 1000 1000">
  <defs>
    <style>
      .cls-1 {
        clip-path: url(#clippath);
      }

      .cls-2 {
        fill: none;
      }

      .cls-2, .cls-3, .cls-4, .cls-5 {
        stroke-width: 0px;
      }

      .cls-3, .cls-4 {
        fill: #e5422b;
      }

      .cls-3, .cls-5 {
        opacity: .25;
      }

      .cls-5 {
        fill: #000;
      }
    </style>
    <clipPath id="clippath">
      <path class="cls-2" d="M895.986,0H104.998C46.999,0,0,47,0,105v789C0,953,46.999,1000,104.998,1000h789.988c56.999,0,104.998-47,104.998-105V105c1-58-45.999-105-103.999-105ZM846.768,375.441v307.313c0,13.481-4.494,23.967-13.481,34.453-8.988,8.987-20.971,13.482-34.454,13.482H201.151c-13.482,0-23.968-4.495-34.453-13.482-8.988-8.987-13.482-20.972-13.482-34.453v-365.507c0-13.481,4.494-23.967,13.482-34.453,10.485-8.987,20.971-13.482,34.453-13.482h597.682c13.482,0,23.968,4.495,34.454,13.482,8.987,8.987,13.481,20.972,13.481,34.453v58.194Z"/>
    </clipPath>
  </defs>
  <path class="cls-4" d="M895.986,0H104.998C46.999,0,0,47,0,105v789C0,953,46.999,1000,104.998,1000h789.988c56.999,0,104.998-47,104.998-105V105c1-58-45.999-105-103.999-105ZM846.768,375.441v307.313c0,13.481-4.494,23.967-13.481,34.453-8.988,8.987-20.971,13.482-34.454,13.482H201.151c-13.482,0-23.968-4.495-34.453-13.482-8.988-8.987-13.482-20.972-13.482-34.453v-365.507c0-13.481,4.494-23.967,13.482-34.453,10.485-8.987,20.971-13.482,34.453-13.482h597.682c13.482,0,23.968,4.495,34.454,13.482,8.987,8.987,13.481,20.972,13.481,34.453v58.194Z"/>
  <g class="cls-1">
    <rect class="cls-5" x="173.786" y="291.237" width="692.066" height="460.718" rx="64.405" ry="64.405"/>
  </g>
  <path class="cls-4" d="M498.413,518.702c18.28,0,37.667-7.201,56.501-23.819l26.035,29.913c-27.143,22.158-58.163,34.344-89.183,34.344-61.486,0-100.261-40.992-91.399-98.601,8.863-57.61,61.486-98.601,123.527-98.601,29.912,0,57.609,11.633,76.996,33.236l-36.559,29.913c-10.525-13.848-27.697-22.712-47.084-22.712-37.113,0-65.364,23.819-71.457,58.164-5.539,34.344,14.956,58.164,52.623,58.164Z"/>
  <path class="cls-3" d="M153.216,639.656v43.098c0,13.481,4.494,25.466,13.482,34.453,10.485,8.987,20.971,13.482,34.453,13.482h597.682c13.482,0,25.466-4.495,34.454-13.482,8.987-10.486,13.481-20.972,13.481-34.453v-43.098"/>
</svg>