<?xml version="1.0" encoding="UTF-8"?>
<svg id="Layer_1" data-name="Layer 1" xmlns="http://www.w3.org/2000/svg" version="1.1" viewBox="0 0 1000 665.237">
  <path class="cls-1" d="M0,541.192v54.93c0,19.438,6.48,36.718,19.439,49.676,15.118,12.959,30.237,19.439,49.676,19.439h861.769c19.44,0,36.718-6.481,49.677-19.439,12.958-15.119,19.438-30.238,19.438-49.676v-54.93H0Z"/>
  <path class="cls-1" d="M1000,526.773V69.115c0-19.438-6.48-36.718-19.438-49.676-15.119-12.959-30.238-19.439-49.677-19.439H69.115c-19.44,0-34.559,6.481-49.676,19.439C6.48,34.558,0,49.677,0,69.115v457.658h1000ZM356.356,275.722c12.779-83.065,88.654-142.168,178.107-142.168,43.129,0,83.063,16.773,111.017,47.922l-52.713,43.13c-15.175-19.968-39.934-32.747-67.888-32.747-53.512,0-94.245,34.344-103.03,83.863-7.987,49.519,21.565,83.863,75.875,83.863,26.357,0,54.311-10.383,81.466-34.344l37.538,43.13c-39.136,31.948-83.862,49.519-128.588,49.519-88.654,0-144.562-59.104-131.783-142.168Z"/>
</svg>
