<?xml version="1.0" encoding="utf-8"?>
<!-- Generator: Adobe Illustrator 24.0.3, SVG Export Plug-In . SVG Version: 6.00 Build 0)  -->
<svg version="1.1" id="Layer_1" xmlns="http://www.w3.org/2000/svg" xmlns:xlink="http://www.w3.org/1999/xlink" x="0px" y="0px"
	 viewBox="0 0 100 100" style="enable-background:new 0 0 100 100;" xml:space="preserve">
<style type="text/css">
	.st0{fill:#E5422B;}
</style>
<g>
	<rect x="39.2" y="58.1" class="st0" width="8.1" height="2.7"/>
	<rect x="31" y="58.1" class="st0" width="5.4" height="2.7"/>
	<path class="st0" d="M89.6,0H10.5C4.7,0,0,4.7,0,10.5v78.9C0,95.3,4.7,100,10.5,100h79c5.7,0,10.5-4.7,10.5-10.5v-79
		C100.1,4.7,95.4,0,89.6,0z M74.4,62.9c0,0.9-0.3,1.7-0.9,2.4c-0.6,0.6-1.5,0.9-2.4,0.9H29c-0.9,0-1.7-0.3-2.4-0.9
		c-0.6-0.6-0.9-1.5-0.9-2.4V50h48.8V62.9z M74.4,41.9H25.6v-4.7c0-0.9,0.3-1.7,0.9-2.4c0.7-0.6,1.5-0.9,2.4-0.9h42
		c0.9,0,1.7,0.3,2.4,0.9c0.6,0.6,0.9,1.5,0.9,2.4V41.9z"/>
</g>
</svg>
