<?xml version="1.0" encoding="utf-8"?>
<!-- Generator: Adobe Illustrator 25.2.3, SVG Export Plug-In . SVG Version: 6.00 Build 0)  -->
<svg version="1.1" id="Layer_1" xmlns="http://www.w3.org/2000/svg" xmlns:xlink="http://www.w3.org/1999/xlink" x="0px" y="0px"
	 viewBox="0 0 100 100" style="enable-background:new 0 0 100 100;" xml:space="preserve">
<style type="text/css">
	.st0{fill:#E5422B;}
</style>
<g>
	<polygon class="st0" points="39.6,55 38.8,55 38.2,55.8 38.2,54 37.5,54 37.5,57 38.2,57 38.2,56.1 38.9,57 39.7,57 38.8,55.9 	"/>
	<polygon class="st0" points="40.9,56.1 40.5,55 39.7,55 40.6,56.8 40.1,57.9 40.8,57.9 42.1,55 41.4,55 	"/>
	<path class="st0" d="M43.6,54.9c-0.3,0-0.5,0.1-0.6,0.3h0V54h-0.7V57H43v-1c0-0.4,0.2-0.5,0.4-0.5c0.2,0,0.4,0.1,0.4,0.4V57h0.7
		v-1.3C44.4,55.2,44.1,54.9,43.6,54.9z"/>
	<path class="st0" d="M36.6,55.3L36.1,55c-0.2-0.1-0.2-0.2-0.2-0.3c0-0.1,0.1-0.2,0.3-0.2c0.2,0,0.4,0.1,0.7,0.2l0.3-0.6
		c-0.4-0.2-0.7-0.2-1-0.2c-0.6,0-1,0.3-1,0.8c0,0.3,0.2,0.6,0.6,0.9l0.5,0.3c0.2,0.1,0.3,0.2,0.3,0.3c0,0.2-0.1,0.2-0.4,0.2
		c-0.3,0-0.6-0.1-0.9-0.3L35,56.8c0.3,0.2,0.7,0.3,1.1,0.3c0.7,0,1.1-0.3,1.1-0.9C37.2,55.8,37,55.5,36.6,55.3z"/>
	<path class="st0" d="M32.7,55c-0.6,0-1.1,0.4-1.1,1.1c0,0.6,0.5,1.1,1.1,1.1c0.3,0,0.6-0.1,0.8-0.2l-0.2-0.5
		c-0.1,0.1-0.3,0.2-0.6,0.2c-0.3,0-0.5-0.1-0.5-0.4h1.5V56C33.7,55.3,33.3,55,32.7,55z M32.2,55.8c0-0.3,0.2-0.4,0.4-0.4
		c0.2,0,0.4,0.1,0.4,0.4H32.2z"/>
	<path class="st0" d="M24.7,39.8c-0.4,2.9,1.5,4.9,4.5,4.9c1.5,0,3.1-0.6,4.4-1.7l-1.3-1.5c-0.9,0.8-1.9,1.2-2.8,1.2
		c-1.9,0-2.9-1.2-2.6-2.9c0.3-1.7,1.7-2.9,3.5-2.9c1,0,1.8,0.4,2.3,1.1l1.8-1.5c-1-1.1-2.3-1.6-3.8-1.6C27.8,34.9,25.2,37,24.7,39.8
		z"/>
	<polygon class="st0" points="25.6,54 24.9,54 24.9,57 26.9,57 26.9,56.4 25.6,56.4 	"/>
	<polygon class="st0" points="31.6,55 30.8,55 30.2,55.8 30.2,54 29.5,54 29.5,57 30.2,57 30.2,56.1 30.9,57 31.7,57 30.8,55.9 	"/>
	<path class="st0" d="M45.8,54.9c-0.7,0-1.1,0.4-1.1,1.1c0,0.6,0.5,1.1,1.1,1.1c0.7,0,1.1-0.4,1.1-1.1
		C46.9,55.4,46.5,54.9,45.8,54.9z M45.8,56.5c-0.3,0-0.5-0.2-0.5-0.5c0-0.3,0.2-0.5,0.5-0.5c0.3,0,0.5,0.2,0.5,0.5
		C46.3,56.3,46.1,56.5,45.8,56.5z"/>
	<path class="st0" d="M28.4,56c0,0.4-0.1,0.5-0.4,0.5c-0.2,0-0.3-0.1-0.3-0.4V55H27v1.2c0,0.6,0.3,0.8,0.8,0.8
		c0.3,0,0.5-0.1,0.6-0.4h0V57h0.6v-2h-0.7V56z"/>
	<path class="st0" d="M72.4,51.2h-7.6c-0.9,0-1.6,0.7-1.6,1.6v3.8c0,0.9,0.7,1.6,1.6,1.6h7.6c0.9,0,1.6-0.7,1.6-1.6v-3.8
		C74,51.9,73.3,51.2,72.4,51.2z"/>
	<path class="st0" d="M51.9,55c-0.6,0-1.1,0.4-1.1,1.1c0,0.6,0.5,1.1,1.1,1.1c0.3,0,0.6-0.1,0.8-0.2l-0.2-0.5
		c-0.1,0.1-0.3,0.2-0.6,0.2c-0.3,0-0.5-0.1-0.5-0.4h1.5V56C52.9,55.3,52.5,55,51.9,55z M51.4,55.8c0-0.3,0.2-0.4,0.4-0.4
		c0.2,0,0.4,0.1,0.4,0.4H51.4z"/>
	<path class="st0" d="M53.8,55.4L53.8,55.4l0-0.4h-0.6v2h0.7v-0.7c0-0.5,0.2-0.7,0.6-0.7h0.1V55h0C54.2,55,53.9,55.1,53.8,55.4z"/>
	<path class="st0" d="M89.6,0H10.5C4.7,0,0,4.7,0,10.5v78.9C0,95.3,4.7,100,10.5,100h79c5.7,0,10.5-4.7,10.5-10.5v-79
		C100.1,4.7,95.4,0,89.6,0z M82.5,38.3v0.9v27.9c0,1.3-0.4,2.2-1.3,3.2c-0.8,0.8-2,1.3-3.2,1.3H22c-1.3,0-2.2-0.4-3.2-1.3
		c-0.8-0.8-1.3-2-1.3-3.2V39.2v-0.9v-5.4c0-1.3,0.4-2.2,1.3-3.2c1-0.8,2-1.3,3.2-1.3H78c1.3,0,2.2,0.4,3.2,1.3
		c0.8,0.8,1.3,2,1.3,3.2V38.3z"/>
	<path class="st0" d="M49.8,55.3L49.8,55.3c-0.1-0.2-0.3-0.3-0.7-0.3c-0.5,0-1,0.4-1,1.1c0,0.7,0.4,1.1,1,1.1c0.3,0,0.5-0.1,0.7-0.3
		h0V57h0.7V54h-0.7V55.3z M49.3,56.5c-0.3,0-0.5-0.2-0.5-0.5c0-0.3,0.2-0.5,0.5-0.5c0.3,0,0.5,0.2,0.5,0.5
		C49.8,56.3,49.6,56.5,49.3,56.5z"/>
	<rect x="47.2" y="54" class="st0" width="0.7" height="3.1"/>
</g>
</svg>
